<mxfile host="app.diagrams.net" modified="2024-03-04T13:26:38.809Z" agent="Mozilla/5.0 (Windows NT 10.0; Win64; x64) AppleWebKit/537.36 (KHTML, like Gecko) Chrome/122.0.0.0 Safari/537.36" etag="RVj-kdeds7I6ntkpp6G8" version="23.1.7" type="github">
  <diagram name="Page-1" id="O27dIG56l-KjZ4WPJZaD">
    <mxGraphModel dx="2234" dy="1538" grid="0" gridSize="10" guides="1" tooltips="1" connect="1" arrows="1" fold="1" page="0" pageScale="1" pageWidth="850" pageHeight="1100" math="0" shadow="0">
      <root>
        <mxCell id="0" />
        <mxCell id="1" parent="0" />
        <mxCell id="KB7yCDgBElnDBzgnLTjr-5" style="edgeStyle=orthogonalEdgeStyle;rounded=0;orthogonalLoop=1;jettySize=auto;html=1;" edge="1" parent="1" source="KB7yCDgBElnDBzgnLTjr-1" target="KB7yCDgBElnDBzgnLTjr-2">
          <mxGeometry relative="1" as="geometry" />
        </mxCell>
        <mxCell id="KB7yCDgBElnDBzgnLTjr-1" value="&lt;font style=&quot;font-size: 10px;&quot;&gt;&lt;b&gt;AWS Lambda&lt;/b&gt;&lt;/font&gt;" style="sketch=0;points=[[0,0,0],[0.25,0,0],[0.5,0,0],[0.75,0,0],[1,0,0],[0,1,0],[0.25,1,0],[0.5,1,0],[0.75,1,0],[1,1,0],[0,0.25,0],[0,0.5,0],[0,0.75,0],[1,0.25,0],[1,0.5,0],[1,0.75,0]];outlineConnect=0;fontColor=#232F3E;fillColor=#ED7100;strokeColor=#ffffff;dashed=0;verticalLabelPosition=bottom;verticalAlign=top;align=center;html=1;fontSize=12;fontStyle=0;aspect=fixed;shape=mxgraph.aws4.resourceIcon;resIcon=mxgraph.aws4.lambda;" vertex="1" parent="1">
          <mxGeometry x="-25" y="-288" width="50" height="50" as="geometry" />
        </mxCell>
        <mxCell id="KB7yCDgBElnDBzgnLTjr-6" style="edgeStyle=orthogonalEdgeStyle;rounded=0;orthogonalLoop=1;jettySize=auto;html=1;" edge="1" parent="1" source="KB7yCDgBElnDBzgnLTjr-2">
          <mxGeometry relative="1" as="geometry">
            <mxPoint x="24" y="-263" as="targetPoint" />
          </mxGeometry>
        </mxCell>
        <mxCell id="KB7yCDgBElnDBzgnLTjr-2" value="&lt;font style=&quot;font-size: 10px;&quot;&gt;&lt;b&gt;DynamoDB&lt;/b&gt;&lt;/font&gt;" style="outlineConnect=0;dashed=0;verticalLabelPosition=bottom;verticalAlign=top;align=center;html=1;shape=mxgraph.aws3.dynamo_db;fillColor=#2E73B8;gradientColor=none;" vertex="1" parent="1">
          <mxGeometry x="197" y="-288" width="50" height="50" as="geometry" />
        </mxCell>
        <mxCell id="KB7yCDgBElnDBzgnLTjr-3" value="&lt;font style=&quot;font-size: 10px;&quot;&gt;&lt;b&gt;IAM&lt;/b&gt;&lt;/font&gt;" style="sketch=0;points=[[0,0,0],[0.25,0,0],[0.5,0,0],[0.75,0,0],[1,0,0],[0,1,0],[0.25,1,0],[0.5,1,0],[0.75,1,0],[1,1,0],[0,0.25,0],[0,0.5,0],[0,0.75,0],[1,0.25,0],[1,0.5,0],[1,0.75,0]];outlineConnect=0;fontColor=#232F3E;fillColor=#DD344C;strokeColor=#ffffff;dashed=0;verticalLabelPosition=bottom;verticalAlign=top;align=center;html=1;fontSize=12;fontStyle=0;aspect=fixed;shape=mxgraph.aws4.resourceIcon;resIcon=mxgraph.aws4.identity_and_access_management;" vertex="1" parent="1">
          <mxGeometry x="-25" y="-169" width="50" height="50" as="geometry" />
        </mxCell>
        <mxCell id="KB7yCDgBElnDBzgnLTjr-7" value="Region" style="sketch=0;outlineConnect=0;gradientColor=none;html=1;whiteSpace=wrap;fontSize=12;fontStyle=0;shape=mxgraph.aws4.group;grIcon=mxgraph.aws4.group_region;strokeColor=#B6BABF;fillColor=none;verticalAlign=top;align=left;spacingLeft=30;fontColor=#B6BABF;dashed=1;" vertex="1" parent="1">
          <mxGeometry x="-315" y="-410" width="589" height="417" as="geometry" />
        </mxCell>
        <mxCell id="KB7yCDgBElnDBzgnLTjr-8" value="AWS Cloud" style="sketch=0;outlineConnect=0;gradientColor=none;html=1;whiteSpace=wrap;fontSize=12;fontStyle=0;shape=mxgraph.aws4.group;grIcon=mxgraph.aws4.group_aws_cloud;strokeColor=#AAB7B8;fillColor=none;verticalAlign=top;align=left;spacingLeft=30;fontColor=#AAB7B8;dashed=0;" vertex="1" parent="1">
          <mxGeometry x="-353" y="-446" width="655" height="478" as="geometry" />
        </mxCell>
        <mxCell id="KB7yCDgBElnDBzgnLTjr-10" value="" style="rounded=0;whiteSpace=wrap;html=1;" vertex="1" parent="1">
          <mxGeometry x="-277" y="-380" width="179" height="371" as="geometry" />
        </mxCell>
        <mxCell id="KB7yCDgBElnDBzgnLTjr-11" value="&lt;font style=&quot;font-size: 10px;&quot;&gt;&lt;b&gt;Code&lt;br&gt;Pipeline&lt;/b&gt;&lt;/font&gt;" style="sketch=0;points=[[0,0,0],[0.25,0,0],[0.5,0,0],[0.75,0,0],[1,0,0],[0,1,0],[0.25,1,0],[0.5,1,0],[0.75,1,0],[1,1,0],[0,0.25,0],[0,0.5,0],[0,0.75,0],[1,0.25,0],[1,0.5,0],[1,0.75,0]];outlineConnect=0;fontColor=#232F3E;fillColor=#C925D1;strokeColor=#ffffff;dashed=0;verticalLabelPosition=bottom;verticalAlign=top;align=center;html=1;fontSize=12;fontStyle=0;aspect=fixed;shape=mxgraph.aws4.resourceIcon;resIcon=mxgraph.aws4.codepipeline;" vertex="1" parent="1">
          <mxGeometry x="-277" y="-380" width="50" height="50" as="geometry" />
        </mxCell>
        <mxCell id="KB7yCDgBElnDBzgnLTjr-13" value="Code&lt;br&gt;Deploy" style="sketch=0;points=[[0,0,0],[0.25,0,0],[0.5,0,0],[0.75,0,0],[1,0,0],[0,1,0],[0.25,1,0],[0.5,1,0],[0.75,1,0],[1,1,0],[0,0.25,0],[0,0.5,0],[0,0.75,0],[1,0.25,0],[1,0.5,0],[1,0.75,0]];outlineConnect=0;fontColor=#232F3E;fillColor=#C925D1;strokeColor=#ffffff;dashed=0;verticalLabelPosition=bottom;verticalAlign=top;align=center;html=1;fontSize=12;fontStyle=0;aspect=fixed;shape=mxgraph.aws4.resourceIcon;resIcon=mxgraph.aws4.codedeploy;" vertex="1" parent="1">
          <mxGeometry x="-217" y="-288" width="50" height="50" as="geometry" />
        </mxCell>
        <mxCell id="KB7yCDgBElnDBzgnLTjr-16" style="edgeStyle=orthogonalEdgeStyle;rounded=0;orthogonalLoop=1;jettySize=auto;html=1;" edge="1" parent="1" source="KB7yCDgBElnDBzgnLTjr-14" target="KB7yCDgBElnDBzgnLTjr-13">
          <mxGeometry relative="1" as="geometry" />
        </mxCell>
        <mxCell id="KB7yCDgBElnDBzgnLTjr-14" value="&lt;font style=&quot;font-size: 10px;&quot;&gt;&lt;b&gt;Code&lt;br&gt;Commit&lt;/b&gt;&lt;/font&gt;" style="sketch=0;points=[[0,0,0],[0.25,0,0],[0.5,0,0],[0.75,0,0],[1,0,0],[0,1,0],[0.25,1,0],[0.5,1,0],[0.75,1,0],[1,1,0],[0,0.25,0],[0,0.5,0],[0,0.75,0],[1,0.25,0],[1,0.5,0],[1,0.75,0]];outlineConnect=0;fontColor=#232F3E;fillColor=#C925D1;strokeColor=#ffffff;dashed=0;verticalLabelPosition=bottom;verticalAlign=top;align=center;html=1;fontSize=12;fontStyle=0;aspect=fixed;shape=mxgraph.aws4.resourceIcon;resIcon=mxgraph.aws4.codecommit;" vertex="1" parent="1">
          <mxGeometry x="-217" y="-109" width="50" height="50" as="geometry" />
        </mxCell>
        <mxCell id="KB7yCDgBElnDBzgnLTjr-15" style="edgeStyle=orthogonalEdgeStyle;rounded=0;orthogonalLoop=1;jettySize=auto;html=1;entryX=0;entryY=0.5;entryDx=0;entryDy=0;entryPerimeter=0;" edge="1" parent="1" source="KB7yCDgBElnDBzgnLTjr-13" target="KB7yCDgBElnDBzgnLTjr-1">
          <mxGeometry relative="1" as="geometry" />
        </mxCell>
        <mxCell id="KB7yCDgBElnDBzgnLTjr-17" value="&lt;font style=&quot;font-size: 10px;&quot;&gt;&lt;b&gt;Dev Team&lt;/b&gt;&lt;/font&gt;" style="points=[[0.35,0,0],[0.98,0.51,0],[1,0.71,0],[0.67,1,0],[0,0.795,0],[0,0.65,0]];verticalLabelPosition=bottom;sketch=0;html=1;verticalAlign=top;aspect=fixed;align=center;pointerEvents=1;shape=mxgraph.cisco19.user;fillColor=#005073;strokeColor=none;" vertex="1" parent="1">
          <mxGeometry x="-460" y="-108" width="48" height="48" as="geometry" />
        </mxCell>
        <mxCell id="KB7yCDgBElnDBzgnLTjr-18" style="edgeStyle=orthogonalEdgeStyle;rounded=0;orthogonalLoop=1;jettySize=auto;html=1;entryX=0;entryY=0.5;entryDx=0;entryDy=0;entryPerimeter=0;" edge="1" parent="1" source="KB7yCDgBElnDBzgnLTjr-17" target="KB7yCDgBElnDBzgnLTjr-14">
          <mxGeometry relative="1" as="geometry" />
        </mxCell>
      </root>
    </mxGraphModel>
  </diagram>
</mxfile>
